<?xml version="1.0" standalone="no"?>
<!DOCTYPE svg PUBLIC "-//W3C//DTD SVG 20010904//EN"
 "http://www.w3.org/TR/2001/REC-SVG-20010904/DTD/svg10.dtd">
<svg version="1.0" xmlns="http://www.w3.org/2000/svg"
 width="1024.000000pt" height="1024.000000pt" viewBox="0 0 1024.000000 1024.000000"
 preserveAspectRatio="xMidYMid meet">
<metadata>
Created by potrace 1.16, written by Peter Selinger 2001-2019
</metadata>
<g transform="translate(0.000000,1024.000000) scale(0.100000,-0.100000)"
fill="#000000" stroke="none">
<path d="M2698 6665 c-3 -3 -45 -16 -94 -30 -172 -45 -325 -107 -440 -176
l-50 -31 14 -81 c10 -64 12 -158 7 -432 -3 -192 -7 -368 -9 -390 -3 -22 -7
-107 -11 -190 -6 -151 -21 -351 -29 -393 -4 -20 -3 -21 16 -11 13 7 97 10 254
8 128 -2 235 -1 237 1 3 3 7 109 11 235 3 127 9 269 12 318 6 84 8 88 42 118
49 43 110 69 136 59 12 -4 20 -13 19 -19 -2 -6 2 -10 9 -8 20 4 21 -31 8 -263
-14 -255 -8 -312 40 -378 18 -25 50 -50 87 -68 54 -27 66 -29 178 -29 114 0
124 2 185 31 36 17 90 52 120 77 l54 45 16 -21 c8 -12 15 -25 15 -29 0 -3 4
-10 9 -15 5 -5 6 -3 2 5 -11 18 -3 15 61 -23 81 -48 193 -75 312 -75 177 0
312 46 414 140 119 109 166 216 174 395 3 62 0 136 -6 170 -15 80 -60 174
-110 228 -22 24 -37 48 -33 52 4 5 2 6 -3 2 -6 -3 -30 7 -54 23 -61 42 -136
67 -234 80 -243 33 -494 -80 -606 -272 -15 -27 -30 -46 -32 -43 -3 2 -5 -4 -6
-13 -1 -9 -11 -48 -22 -87 -36 -128 -26 -288 27 -407 23 -54 19 -62 -41 -73
-27 -5 -44 -3 -63 10 -42 28 -54 71 -49 181 4 93 21 311 29 398 6 55 -11 153
-35 204 -25 50 -79 86 -157 103 -66 14 -163 -1 -240 -38 -57 -27 -158 -104
-205 -157 l-27 -31 5 60 c3 33 10 121 15 195 19 265 51 585 61 609 9 22 0 49
-13 36z m1333 -875 c13 -10 20 -19 16 -20 -5 0 -1 -7 7 -15 37 -38 51 -164 36
-335 -17 -203 -53 -296 -127 -327 -31 -12 -38 -12 -71 4 -44 22 -68 66 -81
153 -31 192 11 447 86 525 27 28 42 35 72 35 24 0 48 -8 62 -20z"/>
<path d="M6589 6564 c-65 -23 -137 -80 -173 -139 -38 -61 -48 -167 -22 -228 8
-21 13 -44 10 -51 -3 -8 -1 -17 5 -21 7 -4 8 1 4 12 -4 11 10 3 35 -19 57 -51
105 -69 182 -70 150 -2 290 117 307 259 11 96 -38 194 -119 238 -62 34 -163
42 -229 19z"/>
<path d="M4858 5980 c-73 -16 -173 -50 -325 -111 l-31 -13 30 -53 c16 -29 36
-75 43 -103 44 -167 17 -409 -62 -562 -28 -54 -36 -80 -37 -133 l-2 -65 195
-1 c108 0 208 -3 224 -5 26 -5 27 -3 28 43 0 26 2 55 3 63 2 8 7 116 11 240 4
124 8 243 9 264 1 36 7 44 56 82 69 54 98 62 131 35 23 -18 24 -25 23 -114 -2
-122 -23 -532 -29 -573 l-6 -32 213 -4 c117 -2 216 0 219 5 4 5 10 127 14 271
10 389 5 354 60 403 83 76 156 75 168 -1 3 -19 1 -90 -3 -158 -13 -172 -12
-344 2 -389 58 -195 394 -227 575 -56 32 30 33 30 48 11 8 -10 12 -25 10 -32
-3 -7 -1 -10 4 -7 5 3 12 1 16 -5 15 -24 95 -60 157 -70 133 -21 267 19 369
109 l46 40 24 -25 c35 -37 174 -102 254 -119 157 -33 341 -12 482 55 45 21 85
35 89 32 4 -4 4 -2 1 4 -4 7 4 19 17 27 56 37 166 173 181 224 11 38 -27 38
-102 -1 -174 -89 -284 -115 -404 -96 -39 6 -81 15 -93 22 -44 22 -86 60 -80
70 4 6 3 8 -3 5 -6 -4 -18 8 -27 27 -18 39 -21 66 -5 66 5 0 7 -4 4 -10 -3 -5
0 -8 7 -5 7 2 70 9 140 15 199 17 297 52 380 135 106 106 84 315 -43 415 -63
49 -137 77 -236 87 -171 17 -321 -15 -444 -95 -168 -109 -258 -278 -261 -484
-1 -99 14 -172 49 -242 27 -54 24 -61 -33 -72 -43 -8 -80 -1 -76 14 1 8 -2 11
-7 8 -5 -4 -17 4 -25 16 -28 40 -17 292 29 688 23 192 26 179 -45 177 -33 -1
-60 -5 -60 -8 0 -4 -26 -10 -57 -14 -32 -4 -100 -20 -151 -36 -51 -17 -97 -27
-104 -23 -6 4 -8 3 -5 -3 4 -5 -12 -16 -34 -23 -50 -17 -56 -29 -36 -83 34
-89 39 -160 26 -345 -6 -96 -9 -212 -6 -258 5 -63 3 -83 -7 -87 -8 -3 -19 0
-25 6 -10 9 -12 9 -9 -3 7 -33 -84 -23 -103 11 -10 19 -14 177 -5 224 2 11 9
93 16 182 15 186 6 270 -35 338 -14 22 -27 47 -30 55 -4 9 -31 25 -61 38 -65
26 -165 29 -241 7 -64 -19 -160 -83 -235 -156 -44 -44 -58 -52 -58 -38 0 34
-48 116 -87 148 -129 107 -307 72 -483 -95 l-55 -53 0 110 c0 60 0 109 0 108
0 0 -39 -9 -87 -19z m2724 -212 c23 -31 31 -70 23 -118 -15 -91 -88 -145 -211
-156 l-70 -7 6 69 c16 172 94 267 200 243 18 -4 42 -18 52 -31z"/>
<path d="M8196 5205 c-22 -8 -44 -11 -50 -8 -6 3 -8 3 -4 -1 3 -4 -5 -24 -18
-43 -40 -59 -30 -148 24 -196 10 -9 44 -23 74 -29 50 -10 59 -9 101 11 34 17
51 33 66 65 25 50 26 72 7 117 -18 43 -44 67 -93 85 -48 17 -59 16 -107 -1z"/>
</g>
</svg>
